<?xml version="1.0" encoding="UTF-8"?>
<svg xmlns="http://www.w3.org/2000/svg" xmlns:xlink="http://www.w3.org/1999/xlink" width="18px" height="16px" viewBox="0 0 15 14" version="1.1">
<g id="surface1">
<path style=" stroke:none;fill-rule:nonzero;fill:rgb(0%,0%,0%);fill-opacity:1;" d="M 9.925781 4.109375 L 13.667969 4.6875 C 13.980469 4.734375 14.238281 4.964844 14.339844 5.28125 C 14.4375 5.597656 14.355469 5.941406 14.132812 6.175781 L 11.417969 8.972656 L 12.058594 12.980469 C 12.113281 13.308594 11.984375 13.640625 11.722656 13.835938 C 11.464844 14.03125 11.125 14.054688 10.847656 13.898438 L 7.503906 12.027344 L 4.160156 13.898438 C 3.878906 14.054688 3.539062 14.03125 3.28125 13.835938 C 3.023438 13.640625 2.894531 13.308594 2.949219 12.980469 L 3.589844 8.972656 L 0.875 6.175781 C 0.648438 5.941406 0.570312 5.597656 0.667969 5.28125 C 0.765625 4.964844 1.027344 4.734375 1.339844 4.6875 L 5.078125 4.109375 L 6.753906 0.492188 C 6.894531 0.191406 7.183594 0 7.503906 0 C 7.824219 0 8.113281 0.191406 8.253906 0.492188 Z M 9.925781 4.109375 "/>
</g>
</svg>
